<svg version="1.1" id="Layer_1" xmlns="http://www.w3.org/2000/svg" xmlns:xlink="http://www.w3.org/1999/xlink" x="0px" y="0px" viewBox="0 0 43.8 43.6" style="enable-background:new 0 0 43.8 43.6;" xml:space="preserve">
 <style type="text/css">
  .st0{filter:url(#Adobe_OpacityMaskFilter);}
	.st1{fill-rule:evenodd;clip-rule:evenodd;fill:#FFFFFF;}
	.st2{mask:url(#mask_1_);}
	.st3{fill-rule:evenodd;clip-rule:evenodd;fill:#0AC9BB;}
	.st4{filter:url(#Adobe_OpacityMaskFilter_1_);}
	.st5{mask:url(#mask-2-2_1_);}
	.st6{filter:url(#Adobe_OpacityMaskFilter_2_);}
	.st7{mask:url(#mask-3_1_);}
	.st8{filter:url(#Adobe_OpacityMaskFilter_3_);}
	.st9{mask:url(#mask-4-2_1_);}
	.st10{filter:url(#Adobe_OpacityMaskFilter_4_);}
	.st11{mask:url(#mask-5_1_);}
	.st12{filter:url(#Adobe_OpacityMaskFilter_5_);}
	.st13{mask:url(#mask-6-2_1_);}
	.st14{filter:url(#Adobe_OpacityMaskFilter_6_);}
	.st15{mask:url(#mask-7_1_);}
	.st16{filter:url(#Adobe_OpacityMaskFilter_7_);}
	.st17{mask:url(#mask-8-2_1_);}
	.st18{filter:url(#Adobe_OpacityMaskFilter_8_);}
	.st19{mask:url(#mask-9_1_);}
	.st20{filter:url(#Adobe_OpacityMaskFilter_9_);}
	.st21{mask:url(#mask-10-2_1_);}
	.st22{filter:url(#Adobe_OpacityMaskFilter_10_);}
	.st23{mask:url(#mask-11_1_);}
	.st24{filter:url(#Adobe_OpacityMaskFilter_11_);}
	.st25{mask:url(#mask-12-2_1_);}
	.st26{filter:url(#Adobe_OpacityMaskFilter_12_);}
	.st27{mask:url(#mask-13_1_);}
	.st28{filter:url(#Adobe_OpacityMaskFilter_13_);}
	.st29{mask:url(#mask-14-2_1_);}
	.st30{filter:url(#Adobe_OpacityMaskFilter_14_);}
	.st31{mask:url(#mask-15_1_);}
	.st32{filter:url(#Adobe_OpacityMaskFilter_15_);}
	.st33{mask:url(#mask-16-2_1_);}
 </style>
 <g id="Symbols">
  <g>
   <defs>
    <filter id="Adobe_OpacityMaskFilter" filterUnits="userSpaceOnUse" x="15" y="0" width="13.9" height="13.8">
     <feColorMatrix type="matrix" values="1 0 0 0 0  0 1 0 0 0  0 0 1 0 0  0 0 0 1 0">
     </feColorMatrix>
    </filter>
   </defs>
   <mask maskUnits="userSpaceOnUse" x="15" y="0" width="13.9" height="13.8" id="mask_1_">
    <g transform="translate(-.31 -.22)" class="st0">
     <g id="mask-2_1_">
      <path id="path-1_1_" class="st1" d="M21.9,0.2c-0.1,0-0.3,0.1-0.4,0.2l-6,6c-0.4,0.4-0.4,1,0,1.3c0,0,0,0,0,0l6,6
						c0.4,0.4,1,0.4,1.3,0c0,0,0,0,0,0l6-6c0.4-0.4,0.4-1,0-1.3c0,0,0,0,0,0l-6-6c-0.1-0.1-0.2-0.2-0.4-0.2
						C22.5,0.2,21.9,0.2,21.9,0.2z">
      </path>
     </g>
    </g>
   </mask>
   <g class="st2">
    <path id="Fill-68" class="st3" d="M21.6,0c-0.1,0-0.3,0.1-0.4,0.2l-6,6c-0.4,0.4-0.4,1,0,1.3c0,0,0,0,0,0l6,6
				c0.4,0.4,1,0.4,1.3,0c0,0,0,0,0,0l6-6c0.4-0.4,0.4-1,0-1.3c0,0,0,0,0,0l-6-6C22.5,0.1,22.4,0,22.2,0C22.2,0,21.6,0,21.6,0z">
    </path>
   </g>
   <defs>
    <filter id="Adobe_OpacityMaskFilter_1_" filterUnits="userSpaceOnUse" x="15" y="29.9" width="13.9" height="13.8">
     <feColorMatrix type="matrix" values="1 0 0 0 0  0 1 0 0 0  0 0 1 0 0  0 0 0 1 0">
     </feColorMatrix>
    </filter>
   </defs>
   <mask maskUnits="userSpaceOnUse" x="15" y="29.9" width="13.9" height="13.8" id="mask-2-2_1_">
    <g transform="translate(-.31 -.22)" class="st4">
     <g id="mask-4_1_">
      <path id="path-3_1_" class="st1" d="M21.6,30.4l-6,6c-0.4,0.4-0.4,1,0,1.3c0,0,0,0,0,0l6,6c0.1,0.1,0.2,0.1,0.3,0.2h0.8
						c0.1,0,0.2-0.1,0.3-0.2l6-6c0.4-0.4,0.4-1,0-1.3c0,0,0,0,0,0l-6-6c-0.2-0.2-0.4-0.3-0.7-0.3C22,30.1,21.7,30.2,21.6,30.4">
      </path>
     </g>
    </g>
   </mask>
   <g class="st5">
    <path id="Fill-71" class="st3" d="M21.3,30.1l-6,6c-0.4,0.4-0.4,1,0,1.3c0,0,0,0,0,0l6,6c0.1,0.1,0.2,0.1,0.3,0.2h0.8
				c0.1,0,0.2-0.1,0.3-0.2l6-6c0.4-0.4,0.4-1,0-1.3c0,0,0,0,0,0l-6-6c-0.2-0.2-0.4-0.3-0.7-0.3C21.7,29.9,21.4,30,21.3,30.1">
    </path>
   </g>
   <defs>
    <filter id="Adobe_OpacityMaskFilter_2_" filterUnits="userSpaceOnUse" x="29.9" y="14.9" width="13.9" height="13.9">
     <feColorMatrix type="matrix" values="1 0 0 0 0  0 1 0 0 0  0 0 1 0 0  0 0 0 1 0">
     </feColorMatrix>
    </filter>
   </defs>
   <mask maskUnits="userSpaceOnUse" x="29.9" y="14.9" width="13.9" height="13.9" id="mask-3_1_">
    <g transform="translate(-.31 -.22)" class="st6">
     <g id="mask-6_1_">
      <path id="path-5_1_" class="st1" d="M36.5,15.4l-6,6c-0.4,0.4-0.4,1,0,1.3l6,6c0.4,0.4,1,0.4,1.3,0c0,0,0,0,0,0l6-6
						c0.4-0.4,0.4-1,0-1.3c0,0,0,0,0,0l-6-6c-0.2-0.2-0.4-0.3-0.7-0.3C36.9,15.1,36.7,15.2,36.5,15.4">
      </path>
     </g>
    </g>
   </mask>
   <g class="st7">
    <path id="Fill-74" class="st3" d="M36.2,15.2l-6,6c-0.4,0.4-0.4,1,0,1.3l6,6c0.4,0.4,1,0.4,1.3,0c0,0,0,0,0,0l6-6
				c0.4-0.4,0.4-1,0-1.3c0,0,0,0,0,0l-6-6c-0.2-0.2-0.4-0.3-0.7-0.3C36.6,14.9,36.4,15,36.2,15.2">
    </path>
   </g>
   <defs>
    <filter id="Adobe_OpacityMaskFilter_3_" filterUnits="userSpaceOnUse" x="10.8" y="37.4" width="3.5" height="5.2">
     <feColorMatrix type="matrix" values="1 0 0 0 0  0 1 0 0 0  0 0 1 0 0  0 0 0 1 0">
     </feColorMatrix>
    </filter>
   </defs>
   <mask maskUnits="userSpaceOnUse" x="10.8" y="37.4" width="3.5" height="5.2" id="mask-4-2_1_">
    <g transform="translate(-.31 -.22)" class="st8">
     <g id="mask-8_1_">
      <path id="path-7_1_" class="st1" d="M14,37.8l-2.7,2.7c-0.3,0.2-0.3,0.7-0.1,0.9c0.1,0.1,0.2,0.1,0.3,0.2l2.3,1.1
						c0.3,0.2,0.6,0.1,0.8-0.2c0.1-0.1,0.1-0.2,0.1-0.4v-4.1c0-0.3-0.1-0.5-0.3-0.5C14.2,37.6,14.1,37.7,14,37.8">
      </path>
     </g>
    </g>
   </mask>
   <g class="st9">
    <path id="Fill-77" class="st3" d="M13.7,37.6l-2.7,2.7c-0.3,0.2-0.3,0.7-0.1,0.9c0.1,0.1,0.2,0.1,0.3,0.2l2.3,1.1
				c0.3,0.2,0.6,0.1,0.8-0.2c0.1-0.1,0.1-0.2,0.1-0.4v-4.1c0-0.3-0.1-0.5-0.3-0.5C13.9,37.4,13.8,37.5,13.7,37.6">
    </path>
   </g>
   <defs>
    <filter id="Adobe_OpacityMaskFilter_4_" filterUnits="userSpaceOnUse" x="29.4" y="37.3" width="3.6" height="5.2">
     <feColorMatrix type="matrix" values="1 0 0 0 0  0 1 0 0 0  0 0 1 0 0  0 0 0 1 0">
     </feColorMatrix>
    </filter>
   </defs>
   <mask maskUnits="userSpaceOnUse" x="29.4" y="37.3" width="3.6" height="5.2" id="mask-5_1_">
    <g transform="translate(-.31 -.22)" class="st10">
     <g id="mask-10_1_">
      <path id="path-9_1_" class="st1" d="M29.7,38.1v4c0,0.3,0.2,0.6,0.5,0.7c0.1,0,0.3,0,0.4-0.1l2.3-1.1c0.3-0.1,0.5-0.5,0.3-0.9
						c0-0.1-0.1-0.2-0.2-0.3l-2.7-2.7c-0.1-0.1-0.2-0.2-0.4-0.2C29.9,37.5,29.7,37.7,29.7,38.1">
      </path>
     </g>
    </g>
   </mask>
   <g class="st11">
    <path id="Fill-80" class="st3" d="M29.4,37.8v4c0,0.3,0.2,0.6,0.5,0.7c0.1,0,0.3,0,0.4-0.1l2.3-1.1c0.3-0.1,0.5-0.5,0.3-0.9
				c0-0.1-0.1-0.2-0.2-0.3l-2.7-2.7c-0.1-0.1-0.2-0.2-0.4-0.2C29.5,37.3,29.4,37.5,29.4,37.8">
    </path>
   </g>
   <defs>
    <filter id="Adobe_OpacityMaskFilter_5_" filterUnits="userSpaceOnUse" x="29.4" y="29.3" width="7.4" height="7.3">
     <feColorMatrix type="matrix" values="1 0 0 0 0  0 1 0 0 0  0 0 1 0 0  0 0 0 1 0">
     </feColorMatrix>
    </filter>
   </defs>
   <mask maskUnits="userSpaceOnUse" x="29.4" y="29.3" width="7.4" height="7.3" id="mask-6-2_1_">
    <g transform="translate(-.31 -.22)" class="st12">
     <g id="mask-12_1_">
      <path id="path-11_1_" class="st1" d="M30.7,29.5c-0.5,0-0.9,0.4-0.9,0.9v5.4c0,0.5,0.4,0.9,0.9,0.9h5.4c0.5,0,1-0.4,1-0.9
						c0,0,0,0,0,0v-5.4c0-0.5-0.4-0.9-0.9-0.9C36.2,29.5,30.7,29.5,30.7,29.5z">
      </path>
     </g>
    </g>
   </mask>
   <g class="st13">
    <path id="Fill-83" class="st3" d="M30.4,29.3c-0.5,0-0.9,0.4-0.9,0.9v5.4c0,0.5,0.4,0.9,0.9,0.9h5.4c0.5,0,1-0.4,1-0.9
				c0,0,0,0,0,0v-5.4c0-0.5-0.4-0.9-0.9-0.9C35.8,29.3,30.4,29.3,30.4,29.3z">
    </path>
   </g>
   <defs>
    <filter id="Adobe_OpacityMaskFilter_6_" filterUnits="userSpaceOnUse" x="37.5" y="10.8" width="5.2" height="3.5">
     <feColorMatrix type="matrix" values="1 0 0 0 0  0 1 0 0 0  0 0 1 0 0  0 0 0 1 0">
     </feColorMatrix>
    </filter>
   </defs>
   <mask maskUnits="userSpaceOnUse" x="37.5" y="10.8" width="5.2" height="3.5" id="mask-7_1_">
    <g transform="translate(-.31 -.22)" class="st14">
     <g id="mask-14_1_">
      <path id="path-13_1_" class="st1" d="M40.7,11.2L38,13.9c-0.4,0.4-0.2,0.7,0.3,0.7h4c0.3,0,0.6-0.2,0.7-0.5
						c0-0.1,0-0.2-0.1-0.3l-1.1-2.3c-0.1-0.2-0.3-0.4-0.6-0.4C41,11,40.8,11.1,40.7,11.2">
      </path>
     </g>
    </g>
   </mask>
   <g class="st15">
    <path id="Fill-86" class="st3" d="M40.4,11l-2.7,2.7c-0.4,0.4-0.2,0.7,0.3,0.7h4c0.3,0,0.6-0.2,0.7-0.5c0-0.1,0-0.2-0.1-0.3
				l-1.1-2.3c-0.1-0.2-0.3-0.4-0.6-0.4C40.7,10.8,40.5,10.9,40.4,11">
    </path>
   </g>
   <defs>
    <filter id="Adobe_OpacityMaskFilter_7_" filterUnits="userSpaceOnUse" x="29.4" y="1.1" width="3.6" height="5.1">
     <feColorMatrix type="matrix" values="1 0 0 0 0  0 1 0 0 0  0 0 1 0 0  0 0 0 1 0">
     </feColorMatrix>
    </filter>
   </defs>
   <mask maskUnits="userSpaceOnUse" x="29.4" y="1.1" width="3.6" height="5.1" id="mask-8-2_1_">
    <g transform="translate(-.31 -.22)" class="st16">
     <g id="mask-16_1_">
      <path id="path-15_1_" class="st1" d="M29.7,2v4c0,0.5,0.3,0.6,0.7,0.3l2.7-2.7c0.3-0.2,0.3-0.6,0.1-0.9
						c-0.1-0.1-0.2-0.1-0.3-0.2l-2.3-1.1c-0.1,0-0.2,0-0.3,0C30,1.4,29.8,1.6,29.7,2C29.8,1.9,29.8,2,29.7,2">
      </path>
     </g>
    </g>
   </mask>
   <g class="st17">
    <path id="Fill-89" class="st3" d="M29.4,1.8v4c0,0.5,0.3,0.6,0.7,0.3l2.7-2.7c0.3-0.2,0.3-0.6,0.1-0.9c-0.1-0.1-0.2-0.1-0.3-0.2
				l-2.3-1.1c-0.1,0-0.2,0-0.3,0C29.7,1.1,29.5,1.4,29.4,1.8C29.5,1.7,29.5,1.8,29.4,1.8">
    </path>
   </g>
   <defs>
    <filter id="Adobe_OpacityMaskFilter_8_" filterUnits="userSpaceOnUse" x="1.1" y="10.8" width="5.2" height="3.5">
     <feColorMatrix type="matrix" values="1 0 0 0 0  0 1 0 0 0  0 0 1 0 0  0 0 0 1 0">
     </feColorMatrix>
    </filter>
   </defs>
   <mask maskUnits="userSpaceOnUse" x="1.1" y="10.8" width="5.2" height="3.5" id="mask-9_1_">
    <g transform="translate(-.31 -.22)" class="st18">
     <g id="mask-18_1_">
      <path id="path-17_1_" class="st1" d="M2.7,11.4l-1.1,2.3c-0.2,0.3-0.1,0.6,0.2,0.8c0.1,0.1,0.2,0.1,0.4,0.1h4
						c0.5,0,0.7-0.3,0.3-0.7l-2.7-2.6C3.6,11.1,3.5,11,3.3,11C3,11,2.8,11.2,2.7,11.4">
      </path>
     </g>
    </g>
   </mask>
   <g class="st19">
    <path id="Fill-92" class="st3" d="M2.3,11.2l-1.1,2.3c-0.2,0.3-0.1,0.6,0.2,0.8c0.1,0.1,0.2,0.1,0.4,0.1h4c0.5,0,0.7-0.3,0.3-0.7
				L3.5,11c-0.1-0.1-0.3-0.2-0.5-0.2C2.7,10.8,2.5,10.9,2.3,11.2">
    </path>
   </g>
   <defs>
    <filter id="Adobe_OpacityMaskFilter_9_" filterUnits="userSpaceOnUse" x="7.1" y="7" width="7.3" height="7.3">
     <feColorMatrix type="matrix" values="1 0 0 0 0  0 1 0 0 0  0 0 1 0 0  0 0 0 1 0">
     </feColorMatrix>
    </filter>
   </defs>
   <mask maskUnits="userSpaceOnUse" x="7.1" y="7" width="7.3" height="7.3" id="mask-10-2_1_">
    <g transform="translate(-.31 -.22)" class="st20">
     <g id="mask-20_1_">
      <path id="path-19_1_" class="st1" d="M8.4,7.3c-0.5,0-0.9,0.4-0.9,0.9v5.4c0,0.5,0.4,0.9,0.9,0.9h5.4c0.5,0,0.9-0.4,0.9-0.9
						V8.2c0-0.5-0.4-0.9-0.9-0.9C13.8,7.3,8.4,7.3,8.4,7.3z">
      </path>
     </g>
    </g>
   </mask>
   <g class="st21">
    <path id="Fill-95" class="st3" d="M8.1,7C7.5,7,7.1,7.5,7.1,8v5.4c0,0.5,0.4,0.9,0.9,0.9h5.4c0.5,0,0.9-0.4,0.9-0.9V8
				C14.4,7.5,14,7,13.5,7C13.5,7,8.1,7,8.1,7z">
    </path>
   </g>
   <defs>
    <filter id="Adobe_OpacityMaskFilter_10_" filterUnits="userSpaceOnUse" x="10.9" y="1.1" width="3.6" height="5.2">
     <feColorMatrix type="matrix" values="1 0 0 0 0  0 1 0 0 0  0 0 1 0 0  0 0 0 1 0">
     </feColorMatrix>
    </filter>
   </defs>
   <mask maskUnits="userSpaceOnUse" x="10.9" y="1.1" width="3.6" height="5.2" id="mask-11_1_">
    <g transform="translate(-.31 -.22)" class="st22">
     <g id="mask-22_1_">
      <path id="path-21_1_" class="st1" d="M13.8,1.4l-2.3,1.1c-0.3,0.1-0.5,0.5-0.4,0.9c0,0.1,0.1,0.2,0.2,0.3l2.7,2.7
						c0.4,0.4,0.7,0.2,0.7-0.3V2c0-0.3-0.2-0.6-0.5-0.6c0,0,0,0-0.1,0C14.1,1.4,14,1.4,13.8,1.4">
      </path>
     </g>
    </g>
   </mask>
   <g class="st23">
    <path id="Fill-98" class="st3" d="M13.5,1.2l-2.3,1.1c-0.3,0.1-0.5,0.5-0.4,0.9c0,0.1,0.1,0.2,0.2,0.3l2.7,2.7
				c0.4,0.4,0.7,0.2,0.7-0.3V1.8c0-0.3-0.2-0.6-0.5-0.6c0,0,0,0-0.1,0C13.8,1.1,13.7,1.2,13.5,1.2">
    </path>
   </g>
   <defs>
    <filter id="Adobe_OpacityMaskFilter_11_" filterUnits="userSpaceOnUse" x="37.5" y="29.3" width="5.2" height="3.6">
     <feColorMatrix type="matrix" values="1 0 0 0 0  0 1 0 0 0  0 0 1 0 0  0 0 0 1 0">
     </feColorMatrix>
    </filter>
   </defs>
   <mask maskUnits="userSpaceOnUse" x="37.5" y="29.3" width="5.2" height="3.6" id="mask-12-2_1_">
    <g transform="translate(-.31 -.22)" class="st24">
     <g id="mask-24_1_">
      <path id="path-23_1_" class="st1" d="M38.3,29.5c-0.5,0-0.6,0.3-0.3,0.7l2.7,2.7c0.2,0.3,0.7,0.3,1,0.1
						c0.1-0.1,0.1-0.1,0.2-0.2l1.1-2.3c0.2-0.3,0.1-0.6-0.2-0.8c-0.1-0.1-0.2-0.1-0.4-0.1L38.3,29.5L38.3,29.5z">
      </path>
     </g>
    </g>
   </mask>
   <g class="st25">
    <path id="Fill-101" class="st3" d="M38,29.3c-0.5,0-0.6,0.3-0.3,0.7l2.7,2.7c0.2,0.3,0.7,0.3,1,0.1c0.1-0.1,0.1-0.1,0.2-0.2
				l1.1-2.3c0.2-0.3,0.1-0.6-0.2-0.8c-0.1-0.1-0.2-0.1-0.4-0.1L38,29.3L38,29.3z">
    </path>
   </g>
   <defs>
    <filter id="Adobe_OpacityMaskFilter_12_" filterUnits="userSpaceOnUse" x="7.1" y="29.3" width="7.3" height="7.3">
     <feColorMatrix type="matrix" values="1 0 0 0 0  0 1 0 0 0  0 0 1 0 0  0 0 0 1 0">
     </feColorMatrix>
    </filter>
   </defs>
   <mask maskUnits="userSpaceOnUse" x="7.1" y="29.3" width="7.3" height="7.3" id="mask-13_1_">
    <g transform="translate(-.31 -.22)" class="st26">
     <g id="mask-26_1_">
      <path id="path-25_1_" class="st1" d="M8.4,29.5c-0.5,0-0.9,0.4-0.9,0.9v5.4c0,0.5,0.4,0.9,0.9,0.9h5.4c0.5,0,0.9-0.4,0.9-0.9
						v-5.4c0-0.5-0.4-0.9-0.9-0.9C13.8,29.5,8.4,29.5,8.4,29.5z">
      </path>
     </g>
    </g>
   </mask>
   <g class="st27">
    <path id="Fill-104" class="st3" d="M8.1,29.3c-0.5,0-0.9,0.4-0.9,0.9v5.4c0,0.5,0.4,0.9,0.9,0.9h5.4c0.5,0,0.9-0.4,0.9-0.9v-5.4
				c0-0.5-0.4-0.9-0.9-0.9C13.5,29.3,8.1,29.3,8.1,29.3z">
    </path>
   </g>
   <defs>
    <filter id="Adobe_OpacityMaskFilter_13_" filterUnits="userSpaceOnUse" x="1.2" y="29.3" width="5.2" height="3.6">
     <feColorMatrix type="matrix" values="1 0 0 0 0  0 1 0 0 0  0 0 1 0 0  0 0 0 1 0">
     </feColorMatrix>
    </filter>
   </defs>
   <mask maskUnits="userSpaceOnUse" x="1.2" y="29.3" width="5.2" height="3.6" id="mask-14-2_1_">
    <g transform="translate(-.31 -.22)" class="st28">
     <g id="mask-28_1_">
      <path id="path-27_1_" class="st1" d="M2.2,29.5c-0.3,0-0.6,0.2-0.7,0.5c0,0.1,0,0.3,0.1,0.4l1.1,2.3C2.8,33,3.2,33.2,3.6,33
						c0.1,0,0.2-0.1,0.3-0.2l2.7-2.7c0.4-0.4,0.2-0.7-0.3-0.7L2.2,29.5L2.2,29.5z">
      </path>
     </g>
    </g>
   </mask>
   <g class="st29">
    <path id="Fill-107" class="st3" d="M1.8,29.3c-0.3,0-0.6,0.2-0.7,0.5c0,0.1,0,0.3,0.1,0.4l1.1,2.3c0.1,0.3,0.5,0.5,0.9,0.4
				c0.1,0,0.2-0.1,0.3-0.2l2.7-2.7c0.4-0.4,0.2-0.7-0.3-0.7L1.8,29.3L1.8,29.3z">
    </path>
   </g>
   <defs>
    <filter id="Adobe_OpacityMaskFilter_14_" filterUnits="userSpaceOnUse" x="29.4" y="7" width="7.3" height="7.3">
     <feColorMatrix type="matrix" values="1 0 0 0 0  0 1 0 0 0  0 0 1 0 0  0 0 0 1 0">
     </feColorMatrix>
    </filter>
   </defs>
   <mask maskUnits="userSpaceOnUse" x="29.4" y="7" width="7.3" height="7.3" id="mask-15_1_">
    <g transform="translate(-.31 -.22)" class="st30">
     <g id="mask-30_1_">
      <path id="path-29_1_" class="st1" d="M30.7,7.3c-0.5,0-0.9,0.4-0.9,0.9v5.4c0,0.5,0.4,0.9,0.9,0.9h5.4c0.5,0,0.9-0.4,0.9-0.9
						V8.2c0-0.5-0.4-0.9-0.9-0.9C36.1,7.3,30.7,7.3,30.7,7.3z">
      </path>
     </g>
    </g>
   </mask>
   <g class="st31">
    <path id="Fill-110" class="st3" d="M30.4,7c-0.5,0-0.9,0.4-0.9,0.9v5.4c0,0.5,0.4,0.9,0.9,0.9h5.4c0.5,0,0.9-0.4,0.9-0.9V8
				c0-0.5-0.4-0.9-0.9-0.9C35.8,7,30.4,7,30.4,7z">
    </path>
   </g>
   <defs>
    <filter id="Adobe_OpacityMaskFilter_15_" filterUnits="userSpaceOnUse" x="0" y="14.9" width="13.9" height="13.8">
     <feColorMatrix type="matrix" values="1 0 0 0 0  0 1 0 0 0  0 0 1 0 0  0 0 0 1 0">
     </feColorMatrix>
    </filter>
   </defs>
   <mask maskUnits="userSpaceOnUse" x="0" y="14.9" width="13.9" height="13.8" id="mask-16-2_1_">
    <g transform="translate(-.31 -.22)" class="st32">
     <g id="mask-32_1_">
      <path id="path-31_1_" class="st1" d="M6.6,15.4l-6,6c-0.4,0.4-0.4,1,0,1.3c0,0,0,0,0,0l6,6c0.4,0.4,1,0.4,1.3,0c0,0,0,0,0,0
						l6-6c0.4-0.4,0.4-1,0-1.3c0,0,0,0,0,0l-6-6c-0.2-0.2-0.4-0.3-0.7-0.3C7,15.1,6.8,15.2,6.6,15.4">
      </path>
     </g>
    </g>
   </mask>
   <g class="st33">
    <path id="Fill-113" class="st3" d="M6.3,15.2l-6,6c-0.4,0.4-0.4,1,0,1.3c0,0,0,0,0,0l6,6c0.4,0.4,1,0.4,1.3,0c0,0,0,0,0,0l6-6
				c0.4-0.4,0.4-1,0-1.3c0,0,0,0,0,0l-6-6C7.4,15,7.2,14.9,7,14.9C6.7,14.9,6.5,15,6.3,15.2">
    </path>
   </g>
  </g>
 </g>
</svg>